<?xml version="1.0" encoding="UTF-8"?> <svg xmlns="http://www.w3.org/2000/svg" width="283.464" height="55.977" viewBox="0 0 283.464 55.977"> <linearGradient id="a" gradientUnits="userSpaceOnUse" x1="-16.043" y1="-362.471" x2="-15.123" y2="-362.471" gradientTransform="matrix(56.971 -56.971 -56.971 -56.971 -19736.896 -21513.271)"> <stop offset=".2" stop-color="#1EB9D6"></stop> <stop offset=".293" stop-color="#1DB4D0"></stop> <stop offset=".414" stop-color="#19A5C0"></stop> <stop offset=".551" stop-color="#138DA5"></stop> <stop offset=".699" stop-color="#0A6C7F"></stop> <stop offset=".85" stop-color="#004351"></stop> </linearGradient> <path fill="url(#a)" d="M21.391 0h-.259c-2.451 0-4.771 1.682-5.99 4.704-1.217 3.025-12.982 35.201-14.455 39.201-2.278 6.192 1.473 12.071 5.955 12.071h17.537s5.292-3.082 5.977-4.949c.688-1.865 4.316-11.716 4.316-11.716l2.779-7.544c-3.473-9.43-9.072-24.634-9.972-27.084-1.321-3.593-4.338-4.683-5.888-4.683"></path> <linearGradient id="b" gradientUnits="userSpaceOnUse" x1="-18.092" y1="-364.778" x2="-17.172" y2="-364.778" gradientTransform="matrix(56.971 56.971 56.971 -56.971 21835.246 -19752.357)"> <stop offset="0" stop-color="#93D4EE"></stop> <stop offset=".198" stop-color="#9AD7EF"></stop> <stop offset=".495" stop-color="#AFDEF0"></stop> <stop offset=".852" stop-color="#D0EBF3"></stop> <stop offset="1" stop-color="#E0F1F4"></stop> </linearGradient> <path fill="url(#b)" d="M53.371 0h-31.979 31.718c-1.551 0-4.566 1.09-5.887 4.682-.901 2.451-6.5 17.654-9.973 27.084l2.779 7.544s3.627 9.851 4.316 11.716c.686 1.867 2.569 4.949 5.977 4.949h17.539c4.482 0 8.233-5.879 5.955-12.071-1.473-4-13.238-36.176-14.456-39.202-1.218-3.02-3.539-4.702-5.989-4.702"></path> <path fill="#6ABBD5" d="M53.11 0h-31.719c1.55 0 4.567 1.09 5.888 4.682.899 2.451 6.499 17.654 9.972 27.084 3.473-9.43 9.071-24.634 9.973-27.084 1.32-3.592 4.336-4.682 5.886-4.682"></path> <path d="M109.425 26.588h1.364v-.557c0-5.145-2.914-6.88-6.879-6.88-4.835 0-8.74 3.037-8.74 3.037l-2.479-4.401s4.524-3.718 11.714-3.718c7.933 0 12.395 4.338 12.395 12.272v19.833h-5.578v-2.975c0-1.426.124-2.479.124-2.479h-.124s-2.54 6.197-10.041 6.197c-5.391 0-10.66-3.285-10.66-9.545 0-10.35 13.637-10.784 18.904-10.784zm-6.942 15.494c5.083 0 8.368-5.329 8.368-9.978v-.991h-1.549c-4.524 0-12.705.309-12.705 5.95-.001 2.54 1.981 5.019 5.886 5.019zM122.63 2.417h6.073v6.135h-6.073v-6.135zm.062 12.395h6.011v31.362h-6.011v-31.362zM135.026 14.812h5.826v5.454c0 1.302-.124 2.355-.124 2.355h.124c1.426-4.587 5.083-8.181 9.917-8.181.807 0 1.55.124 1.55.124v5.95s-.805-.185-1.734-.185c-3.842 0-7.375 2.727-8.802 7.375-.559 1.798-.744 3.719-.744 5.64v12.83h-6.012v-31.362zM169.738 14.44c7.375 0 11.093 4.4 11.093 4.4l-1.61 2.108s-3.533-3.967-9.483-3.967c-7.253 0-13.263 5.392-13.263 13.76 0 8.241 6.01 13.634 13.263 13.634 6.817 0 10.35-4.463 10.35-4.463l1.364 2.168s-4.028 4.835-11.714 4.835c-8.74 0-15.991-6.321-15.991-16.175 0-9.853 7.375-16.3 15.991-16.3zM186.66 2.417h2.604v36.691c0 4.339 2.231 4.835 3.657 4.835.496 0 .93-.063.93-.063v2.418s-.559.124-1.117.124c-1.797 0-6.074-.682-6.074-6.508v-37.497zM211.886 14.44c8.864 0 16.054 7.003 16.054 16.052 0 9.234-7.19 16.424-16.054 16.424-8.861 0-16.051-7.19-16.051-16.424-.001-9.048 7.189-16.052 16.051-16.052zm0 29.936c7.377 0 13.327-6.011 13.327-13.884 0-7.684-5.95-13.511-13.327-13.511-7.375 0-13.324 5.827-13.324 13.511 0 7.873 5.949 13.884 13.324 13.884zM250.131 27.27h2.044v-1.053c0-6.88-3.531-9.235-8.49-9.235-5.393 0-8.863 2.975-8.863 2.975l-1.488-2.106s3.72-3.41 10.476-3.41c7.127 0 10.969 3.967 10.969 11.714v20.019h-2.604v-4.092c0-1.673.248-2.788.248-2.788h-.123c.063 0-2.788 7.623-10.845 7.623-5.021 0-10.537-2.79-10.537-8.986 0-10.536 13.698-10.661 19.213-10.661zm-8.553 17.23c6.756 0 10.598-7.004 10.598-13.139v-1.673h-1.981c-5.27 0-16.549 0-16.549 8.057-.001 3.283 2.664 6.755 7.932 6.755zM260.842 2.416h2.604v24.844h5.517l10.041-12.21h3.408l-11.217 13.326v.124l12.271 17.673h-3.283l-11.219-16.494h-5.517v16.494h-2.604v-43.757z"></path> </svg> 