<svg xmlns="http://www.w3.org/2000/svg" xmlns:xlink="http://www.w3.org/1999/xlink" viewBox="0 0 70.115 33.867" width="100%" height="100%" preserveAspectRatio="xMinYMid"><defs><radialGradient xlink:href="#a" id="c" cx="180.171" cy="88.962" fx="180.171" fy="88.962" r="17.804" gradientUnits="userSpaceOnUse" gradientTransform="matrix(-1.59752 .20318 -.21516 -1.65875 383.46 292.305)"/><radialGradient xlink:href="#a" id="e" gradientUnits="userSpaceOnUse" gradientTransform="matrix(-1.59752 .20318 -.21516 -1.65875 383.46 292.305)" cx="180.171" cy="88.962" fx="180.171" fy="88.962" r="17.804"/><filter id="d" x="-.125" width="1.251" y="-.32" height="1.64" color-interpolation-filters="sRGB"><feGaussianBlur stdDeviation="3.43"/></filter><filter id="b" x="-.129" width="1.259" y="-.296" height="1.592" color-interpolation-filters="sRGB"><feGaussianBlur stdDeviation="3.426"/></filter><linearGradient id="a"><stop offset="0" stop-color="#fff"/><stop offset="1" stop-color="#014f9e" stop-opacity=".013"/></linearGradient></defs><g transform="translate(5.371 -375.306) scale(1.37562)"><ellipse transform="matrix(.11233 .0859 -.18347 .11559 57.208 258.038)" cx="40.342" cy="267.353" rx="19.739" ry="19.546" opacity=".4" fill-rule="evenodd" filter="url(#b)"/><g transform="translate(.09 247.678) scale(.21748)" fill-rule="evenodd"><ellipse ry="19.546" rx="19.739" cy="189.207" cx="70.056" fill="#014f9e"/><ellipse ry="19.546" rx="19.739" cx="70.056" cy="189.207" fill="url(#c)"/></g><path d="M9.678 286.616a44.098 44.098 0 00-.325-.086c-1.35-.352-2.575-.823-3.626-1.395-1.655-.9-2.789-2.015-3.173-3.12a2.407 2.407 0 01-.147-.885c.004-1.608.932-2.941 2.757-3.96 2.132-1.192 5.536-1.933 9.811-2.137a41.38 41.38 0 012.198-.052c1.87-.012 3.219.035 5.485.19 1.988.137 2.901.237 4.615.507.585.092 1.271.197 1.915.293l.376.057-1.778-.01c-5.144-.025-7.378.005-9.761.13-6.254.329-10.01 1.297-11.72 3.023-.582.587-.917 1.264-1.018 2.06-.02.161-.02.676 0 .84.11.87.514 1.63 1.28 2.398.7.702 1.633 1.347 3.005 2.076.123.066.159.09.106.071z" fill="#c6c6c6"/><ellipse transform="matrix(.05235 .04003 -.0855 .05387 52.309 261.824)" cx="40.342" cy="267.353" rx="19.739" ry="19.546" opacity=".4" fill-rule="evenodd" filter="url(#d)"/><g transform="translate(25.69 256.996) scale(.10135)" fill-rule="evenodd"><ellipse ry="19.546" rx="19.739" cy="189.207" cx="70.056" fill="#014f9e"/><ellipse ry="19.546" rx="19.739" cx="70.056" cy="189.207" fill="url(#e)"/></g><path d="M22.418 286.131h1.708v6.182h-1.708v-6.182zm2.16 5.07c0-.612.004-1.112.007-1.112.006 0 2.42 2.125 2.494 2.194l.03.03h-2.53zm3.883 1.098a2.247 2.247 0 01-1.192-.518c-.39-.33-.658-.82-.736-1.344a3.417 3.417 0 01-.006-.66c.108-.996.637-1.628 1.512-1.805.16-.033.505-.066.54-.053.019.007.02.177.017 2.198-.003 1.935-.005 2.19-.022 2.191-.01.001-.061-.003-.113-.009zm.578-6.168h1.709v6.182h-1.709zm3.683 6.085a5434.832 5434.832 0 00-1.673-4.296c.577-.005 1.017 0 1.639.002l.67 1.674.67 1.674-.522 1.037-.373.003-.373.003zm2.5.087c.935-1.546 1.655-2.72 2.669-4.381l1.003-.003c.878-.003 1.003-.001.997.015-.936 1.545-1.654 2.72-2.666 4.378h-1.002c-.551 0-1.002-.003-1.002-.008zm2.381-.006c.04-.068 1.907-3.008 1.916-3.018.007-.007.012.593.012 1.511v1.523h-.969c-.77 0-.966-.003-.959-.016zm-2.093-2.853v-1.528h.967c.532 0 .968.002.968.005 0 .005-1.92 3.036-1.93 3.047-.003.003-.005-.683-.005-1.524zm-1.82-.257c-.264-.69-.48-1.258-.48-1.263 0-.005.468-.009 1.039-.009.982 0 1.037.001 1.031.022-.01.034-1.091 2.484-1.101 2.495-.005.005-.225-.555-.489-1.245zm-9.111-1.271h2.08l-1.037 1.036c-.57.57-1.038 1.037-1.04 1.037-.005-.73-.003-1.287-.003-2.073z"/><path d="M23.055 295.383l-.199-.381-.089-.17-.084-.004-.085-.004-.003.362-.003.362h-.176V293.977l.226-.004c.258-.004.363.01.452.058.078.042.126.11.152.216a.466.466 0 01-.227.543.819.819 0 00-.055.03c-.002.001.085.166.193.364.147.267.194.363.182.37a.264.264 0 01-.074.018.71.71 0 00-.079.015c-.016.005-.045-.04-.13-.205zm-.148-.714c.112-.033.17-.126.171-.27.001-.102-.017-.162-.063-.205-.052-.05-.097-.062-.263-.069l-.154-.006v.569h.123c.072 0 .15-.008.186-.018zm2.226.911c-.183-.032-.325-.178-.373-.386a1.185 1.185 0 010-.374.54.54 0 01.157-.293.377.377 0 01.288-.106c.16.002.264.061.33.188.05.094.07.186.072.318v.106l-.343.003-.345.003.008.066c.025.211.146.336.326.336a.587.587 0 00.23-.07l.053-.03.027.066.027.065-.029.021a.86.86 0 01-.293.09.597.597 0 01-.135-.004zm.295-.685c.015-.015-.018-.165-.049-.222a.211.211 0 00-.163-.118c-.143-.023-.267.097-.289.278l-.008.068h.251c.138 0 .254-.003.258-.006zm7.987.68c-.08-.022-.122-.054-.156-.12-.028-.055-.029-.066-.029-.461v-.406l-.097-.004-.097-.004v-.125l.097-.004.097-.004.003-.171.004-.171.056-.017c.106-.032.1-.041.1.171v.189h.368l-.007.034a.52.52 0 01-.02.07l-.013.034h-.327v.369c0 .237.005.383.014.409.027.077.124.096.25.05l.09-.032c.014-.005.024.005.034.034.027.08.02.096-.053.123a.961.961 0 01-.234.052.56.56 0 01-.08-.018zm3.975-.054l-.199-.38-.159-.309-.084-.004-.085-.004-.003.362-.004.362-.09.004-.092.004.003-.79.003-.788.227-.004c.27-.004.369.009.46.064.056.033.074.054.111.127.042.082.044.093.044.213 0 .11-.005.136-.033.199a.467.467 0 01-.203.21c-.032.015-.059.032-.059.037 0 .005.088.169.196.365.134.246.19.36.18.366a.318.318 0 01-.076.018.495.495 0 00-.08.014c-.01.005-.03-.017-.057-.066zm-.239-.847c.127-.03.188-.119.189-.276 0-.106-.03-.187-.088-.228-.042-.03-.143-.048-.278-.048h-.111v.566h.116c.064 0 .141-.007.172-.014zm.994.911c-.127-.021-.189-.058-.23-.135-.027-.05-.028-.064-.032-.526l-.004-.473.08-.018.079-.017.006.455c.006.436.008.457.032.491.069.094.175.1.33.022l.097-.049.003-.433c.002-.238.008-.438.014-.444a.43.43 0 01.158-.037c.004.004.007.221.007.483v.476l.032.062a.624.624 0 01.03.067.335.335 0 01-.061.044c-.058.036-.064.037-.083.019a.256.256 0 01-.04-.069.198.198 0 00-.023-.049.636.636 0 00-.063.04.515.515 0 01-.332.091zm-14.498-.046a28.889 28.889 0 01-.003-.819l.003-.803.032-.008c.017-.005.052-.013.078-.018l.047-.009v.34c0 .218.005.34.013.34.007 0 .04-.02.072-.043a.481.481 0 01.287-.098c.127-.001.194.032.237.12l.032.064v.951l-.078-.004-.079-.004-.006-.447c-.007-.499-.007-.498-.095-.527-.089-.03-.24.016-.336.1l-.047.041v.84h-.075c-.05 0-.078-.007-.082-.016zm2.37-.467v-.484l-.104-.004-.104-.004v-.125l.185-.003.186-.003v1.106h-.164zm.615.021c0-.421-.003-.468-.025-.531-.013-.038-.02-.072-.015-.076a.964.964 0 01.068-.042l.06-.033.018.028c.01.016.024.053.032.082l.014.052.07-.05a.51.51 0 01.301-.103c.128 0 .198.035.239.122.03.064.03.065.03.539v.475l-.079-.004-.078-.004-.006-.446c-.007-.489-.008-.491-.083-.523-.085-.035-.199-.01-.311.07l-.072.052v.853h-.163v-.461zm3.952.446a26.802 26.802 0 01-.002-.788l.003-.773.37-.003c.204-.002.378-.001.386.003.012.004.01.022-.007.072l-.022.067-.273.003-.272.003v.527h.478v.151h-.478v.603h.578v.151h-.377c-.29 0-.379-.004-.384-.016zm1.086-.44l-.004-.455-.034-.073-.034-.073.051-.037c.073-.052.09-.049.122.025a.35.35 0 01.027.08c0 .04.023.03.101-.046.092-.09.158-.116.242-.097a.207.207 0 01.055.018.469.469 0 01-.058.15c-.005.005-.025.004-.044-.003-.05-.02-.104.009-.188.095l-.07.074v.798h-.162zm.803.448a6.845 6.845 0 01-.01-.484v-.475l-.084-.004-.085-.004-.004-.066-.003-.066h.173l.008-.161c.012-.228.047-.315.15-.37.09-.047.327-.034.402.022.021.015.021.019-.003.074-.027.065-.044.07-.118.04-.052-.023-.162-.026-.198-.006-.046.025-.061.088-.061.25v.152h.176c.168 0 .176 0 .176.025a.236.236 0 01-.019.07l-.018.043h-.315l-.003.48-.003.481-.076.004a.244.244 0 01-.085-.005zm6.624-.46c-.003-.458-.004-.47-.032-.521a.293.293 0 01-.028-.065c0-.007.028-.03.062-.05.057-.035.063-.037.08-.017a.34.34 0 01.041.09.69.69 0 00.026.075.328.328 0 00.072-.065.57.57 0 01.109-.091c.047-.025.146-.029.185-.008l.027.014-.032.072c-.018.04-.033.074-.035.075-.002.002-.02-.003-.042-.01-.056-.02-.114.012-.198.106l-.069.077v.786h-.162l-.004-.468zm-10.058.019a.172.172 0 01-.06-.038c-.103-.098-.006-.271.13-.23.066.019.1.065.1.135 0 .045-.008.063-.037.093-.02.02-.045.036-.056.036a.138.138 0 00-.035.005.1.1 0 01-.042 0zm6.055-.005c-.056-.016-.091-.066-.091-.13a.13.13 0 01.099-.134c.04-.012.055-.01.094.008.159.076.068.305-.102.256zm-9.076-.946c-.073-.04-.086-.146-.028-.212.031-.035.045-.04.094-.04.045 0 .064.006.095.036s.038.047.038.092c0 .068-.015.098-.062.122a.148.148 0 01-.137.002z" fill="#014f9e"/></g></svg>